<svg width="348" height="108" viewBox="0 0 348 108" fill="none" xmlns="http://www.w3.org/2000/svg">
<path d="M5.184 31.352C4.8 30.968 4.48 30.4987 4.224 29.944C3.968 29.3467 3.84 28.6427 3.84 27.832C3.84 27.2347 3.904 26.5947 4.032 25.912C4.288 24.632 4.90667 23.3093 5.888 21.944C6.86933 20.5787 7.95733 19.2987 9.152 18.104C10.3893 16.8667 11.52 15.8853 12.544 15.16C13.568 14.392 14.272 14.008 14.656 14.008C14.8267 14.008 15.0613 14.072 15.36 14.2C15.6587 14.2853 16.2773 14.5413 17.216 14.968C15.68 16.1627 14.4427 17.464 13.504 18.872C12.608 20.2373 12.16 21.432 12.16 22.456C12.16 23.0533 12.3307 23.5227 12.672 23.864L15.168 26.36C15.9787 27.1707 16.384 28.0027 16.384 28.856C16.384 29.7093 15.9787 30.5413 15.168 31.352L12.672 33.848C11.8613 34.6587 11.0293 35.064 10.176 35.064C9.32267 35.064 8.49067 34.6587 7.68 33.848L5.184 31.352ZM19.456 31.352C19.072 30.968 18.752 30.4987 18.496 29.944C18.24 29.3467 18.112 28.6427 18.112 27.832C18.112 27.2347 18.176 26.5947 18.304 25.912C18.56 24.632 19.1787 23.3093 20.16 21.944C21.1413 20.5787 22.2293 19.2987 23.424 18.104C24.6613 16.8667 25.792 15.8853 26.816 15.16C27.84 14.392 28.544 14.008 28.928 14.008C29.0987 14.008 29.3333 14.072 29.632 14.2C29.9307 14.2853 30.5493 14.5413 31.488 14.968C29.952 16.1627 28.7147 17.464 27.776 18.872C26.88 20.2373 26.432 21.432 26.432 22.456C26.432 23.0533 26.6027 23.5227 26.944 23.864L29.44 26.36C30.2507 27.1707 30.656 28.0027 30.656 28.856C30.656 29.7093 30.2507 30.5413 29.44 31.352L26.944 33.848C26.1333 34.6587 25.3013 35.064 24.448 35.064C23.5947 35.064 22.7627 34.6587 21.952 33.848L19.456 31.352Z" fill="white"/>
<path d="M311.312 84.72C311.696 85.104 312.016 85.5733 312.272 86.128C312.528 86.6827 312.656 87.3867 312.656 88.24C312.656 88.7947 312.592 89.4347 312.464 90.16C312.208 91.44 311.589 92.7627 310.608 94.128C309.627 95.4933 308.517 96.7947 307.28 98.032C306.085 99.2267 304.976 100.208 303.952 100.976C302.928 101.701 302.224 102.064 301.84 102.064C301.669 102.064 301.435 102.021 301.136 101.936C300.837 101.808 300.219 101.531 299.28 101.104C300.816 99.9093 302.032 98.6293 302.928 97.264C303.867 95.856 304.336 94.64 304.336 93.616C304.336 93.0187 304.165 92.5493 303.824 92.208L301.328 89.712C300.517 88.9013 300.112 88.0693 300.112 87.216C300.112 86.3627 300.517 85.5307 301.328 84.72L303.824 82.224C304.635 81.4133 305.467 81.008 306.32 81.008C307.173 81.008 308.005 81.4133 308.816 82.224L311.312 84.72ZM297.04 84.72C297.424 85.104 297.744 85.5733 298 86.128C298.256 86.6827 298.384 87.3867 298.384 88.24C298.384 88.7947 298.32 89.4347 298.192 90.16C297.936 91.44 297.317 92.7627 296.336 94.128C295.355 95.4933 294.245 96.7947 293.008 98.032C291.813 99.2267 290.704 100.208 289.68 100.976C288.656 101.701 287.952 102.064 287.568 102.064C287.397 102.064 287.163 102.021 286.864 101.936C286.565 101.808 285.947 101.531 285.008 101.104C286.544 99.9093 287.76 98.6293 288.656 97.264C289.595 95.856 290.064 94.64 290.064 93.616C290.064 93.0187 289.893 92.5493 289.552 92.208L287.056 89.712C286.245 88.9013 285.84 88.0693 285.84 87.216C285.84 86.3627 286.245 85.5307 287.056 84.72L289.552 82.224C290.363 81.4133 291.195 81.008 292.048 81.008C292.901 81.008 293.733 81.4133 294.544 82.224L297.04 84.72Z" fill="white"/>
<path d="M42.736 52V51.328L43.376 51.104C43.76 50.9973 44.0267 50.816 44.176 50.56C44.3253 50.2827 44.4107 49.9093 44.432 49.44V33.344C44.4107 32.896 44.336 32.5547 44.208 32.32C44.08 32.064 43.8133 31.872 43.408 31.744L42.736 31.52V30.848H57.968L58.192 35.968H57.296L56.016 33.088C55.8453 32.6827 55.6533 32.3733 55.44 32.16C55.2267 31.9253 54.9067 31.808 54.48 31.808H49.04C49.0187 33.1307 49.008 34.496 49.008 35.904C49.008 37.2907 49.008 38.8587 49.008 40.608H52.176C52.6027 40.608 52.9227 40.5013 53.136 40.288C53.3707 40.0533 53.584 39.744 53.776 39.36L54.32 38.144H55.024V44.064H54.32L53.744 42.848C53.5733 42.464 53.3813 42.1547 53.168 41.92C52.9547 41.6853 52.6347 41.568 52.208 41.568H49.008C49.008 43.104 49.008 44.4267 49.008 45.536C49.008 46.6453 49.008 47.6373 49.008 48.512C49.0293 49.3653 49.04 50.208 49.04 51.04H55.184C55.6107 51.04 55.9413 50.9333 56.176 50.72C56.4107 50.4853 56.6027 50.1653 56.752 49.76L57.936 46.88H58.832L58.608 52H42.736ZM66.494 52.096L60.862 38.56C60.6273 37.9627 60.2113 37.5787 59.614 37.408L58.942 37.248V36.64H67.038V37.248L66.206 37.44C65.5233 37.6107 65.3207 38.048 65.598 38.752L68.958 47.68L72.094 38.816C72.2007 38.4533 72.222 38.1653 72.158 37.952C72.1153 37.7173 71.9127 37.5573 71.55 37.472L70.622 37.248V36.64H75.486V37.248L74.43 37.504C73.8113 37.6533 73.3953 38.0373 73.182 38.656L68.35 52.096H66.494ZM83.5158 36.16C84.8598 36.16 86.0118 36.4373 86.9718 36.992C87.9318 37.5467 88.6678 38.3147 89.1798 39.296C89.7131 40.256 89.9798 41.3653 89.9798 42.624C89.9798 42.9013 89.9691 43.168 89.9478 43.424C89.9264 43.6587 89.8838 43.8827 89.8198 44.096H80.1878C80.2091 46.2933 80.6144 47.872 81.4038 48.832C82.2144 49.792 83.3878 50.272 84.9238 50.272C85.9904 50.272 86.8544 50.1013 87.5158 49.76C88.1771 49.3973 88.7851 48.896 89.3398 48.256L89.8518 48.736C89.2118 49.9093 88.3371 50.8267 87.2278 51.488C86.1398 52.128 84.8384 52.448 83.3238 52.448C81.8091 52.448 80.4758 52.128 79.3238 51.488C78.1718 50.848 77.2651 49.9307 76.6038 48.736C75.9638 47.52 75.6438 46.0693 75.6438 44.384C75.6438 42.6347 76.0171 41.152 76.7638 39.936C77.5318 38.72 78.5131 37.792 79.7078 37.152C80.9238 36.4907 82.1931 36.16 83.5158 36.16ZM83.3558 37.088C82.7371 37.088 82.1931 37.2693 81.7238 37.632C81.2758 37.9733 80.9131 38.592 80.6358 39.488C80.3798 40.3627 80.2304 41.6 80.1878 43.2H85.9158C86.1504 41.0453 86.0651 39.488 85.6598 38.528C85.2544 37.568 84.4864 37.088 83.3558 37.088ZM91.6095 52V51.392L92.1215 51.264C92.8255 51.0507 93.1775 50.528 93.1775 49.696V40.256C93.1562 39.808 93.0815 39.4667 92.9535 39.232C92.8255 38.976 92.5482 38.8053 92.1215 38.72L91.6095 38.592V38.016L96.7935 36.16L97.1775 36.512L97.4015 38.496C98.1695 37.8133 99.0228 37.2587 99.9615 36.832C100.922 36.384 101.86 36.16 102.778 36.16C104.186 36.16 105.263 36.544 106.01 37.312C106.778 38.08 107.162 39.2533 107.162 40.832V49.728C107.162 50.56 107.546 51.0827 108.314 51.296L108.666 51.392V52H101.306V51.392L101.786 51.264C102.49 51.0293 102.842 50.5067 102.842 49.696V40.192C102.842 39.4453 102.682 38.9013 102.362 38.56C102.042 38.2187 101.508 38.048 100.762 38.048C99.7162 38.048 98.6282 38.5067 97.4975 39.424V49.728C97.4975 50.56 97.8708 51.0827 98.6175 51.296L98.9375 51.392V52H91.6095ZM120.728 34.4C120.024 34.4 119.426 34.176 118.936 33.728C118.445 33.28 118.2 32.7147 118.2 32.032C118.2 31.328 118.445 30.7627 118.936 30.336C119.426 29.888 120.024 29.664 120.728 29.664C121.432 29.664 122.029 29.888 122.52 30.336C123.01 30.7627 123.256 31.328 123.256 32.032C123.256 32.7147 123.01 33.28 122.52 33.728C122.029 34.176 121.432 34.4 120.728 34.4ZM117.048 52V51.392L117.528 51.264C117.954 51.136 118.242 50.944 118.392 50.688C118.541 50.432 118.626 50.0907 118.648 49.664V43.776C118.648 43.1147 118.648 42.5067 118.648 41.952C118.648 41.376 118.637 40.7893 118.616 40.192C118.616 39.7653 118.53 39.4347 118.36 39.2C118.21 38.944 117.922 38.7733 117.496 38.688L117.048 38.592V38.016L122.648 36.16L123.032 36.512L122.936 41.056V49.696C122.936 50.1227 123.01 50.464 123.16 50.72C123.33 50.976 123.618 51.168 124.024 51.296L124.376 51.392V52H117.048ZM125.797 52V51.392L126.309 51.264C127.013 51.0507 127.365 50.528 127.365 49.696V40.256C127.344 39.808 127.269 39.4667 127.141 39.232C127.013 38.976 126.736 38.8053 126.309 38.72L125.797 38.592V38.016L130.981 36.16L131.365 36.512L131.589 38.496C132.357 37.8133 133.21 37.2587 134.149 36.832C135.109 36.384 136.048 36.16 136.965 36.16C138.373 36.16 139.45 36.544 140.197 37.312C140.965 38.08 141.349 39.2533 141.349 40.832V49.728C141.349 50.56 141.733 51.0827 142.501 51.296L142.853 51.392V52H135.493V51.392L135.973 51.264C136.677 51.0293 137.029 50.5067 137.029 49.696V40.192C137.029 39.4453 136.869 38.9013 136.549 38.56C136.229 38.2187 135.696 38.048 134.949 38.048C133.904 38.048 132.816 38.5067 131.685 39.424V49.728C131.685 50.56 132.058 51.0827 132.805 51.296L133.125 51.392V52H125.797ZM156.739 52.448C155.715 52.448 154.787 52.3307 153.955 52.096C153.145 51.8827 152.366 51.5733 151.619 51.168V47.392H152.483L153.443 49.216C153.849 50.0053 154.307 50.592 154.819 50.976C155.353 51.36 156.025 51.552 156.835 51.552C157.838 51.552 158.638 51.3387 159.235 50.912C159.833 50.464 160.131 49.8667 160.131 49.12C160.131 48.4373 159.907 47.8827 159.459 47.456C159.011 47.0293 158.211 46.6347 157.059 46.272L155.651 45.824C154.393 45.44 153.39 44.864 152.643 44.096C151.918 43.3067 151.555 42.3253 151.555 41.152C151.555 40.2347 151.801 39.4027 152.291 38.656C152.782 37.888 153.497 37.28 154.435 36.832C155.374 36.384 156.515 36.16 157.859 36.16C158.734 36.16 159.534 36.2667 160.259 36.48C161.006 36.672 161.731 36.9493 162.435 37.312L162.243 40.736H161.411L160.419 38.912C160.078 38.2293 159.726 37.76 159.363 37.504C159.022 37.2267 158.489 37.088 157.763 37.088C156.995 37.088 156.313 37.2907 155.715 37.696C155.139 38.08 154.851 38.624 154.851 39.328C154.851 39.9893 155.097 40.5333 155.587 40.96C156.078 41.3653 156.867 41.7493 157.955 42.112L159.331 42.528C160.889 43.0187 161.998 43.6693 162.659 44.48C163.321 45.2907 163.651 46.2613 163.651 47.392C163.651 48.9067 163.043 50.1333 161.827 51.072C160.633 51.9893 158.937 52.448 156.739 52.448ZM168.759 34.4C168.055 34.4 167.458 34.176 166.967 33.728C166.476 33.28 166.231 32.7147 166.231 32.032C166.231 31.328 166.476 30.7627 166.967 30.336C167.458 29.888 168.055 29.664 168.759 29.664C169.463 29.664 170.06 29.888 170.551 30.336C171.042 30.7627 171.287 31.328 171.287 32.032C171.287 32.7147 171.042 33.28 170.551 33.728C170.06 34.176 169.463 34.4 168.759 34.4ZM165.079 52V51.392L165.559 51.264C165.986 51.136 166.274 50.944 166.423 50.688C166.572 50.432 166.658 50.0907 166.679 49.664V43.776C166.679 43.1147 166.679 42.5067 166.679 41.952C166.679 41.376 166.668 40.7893 166.647 40.192C166.647 39.7653 166.562 39.4347 166.391 39.2C166.242 38.944 165.954 38.7733 165.527 38.688L165.079 38.592V38.016L170.679 36.16L171.063 36.512L170.967 41.056V49.696C170.967 50.1227 171.042 50.464 171.191 50.72C171.362 50.976 171.65 51.168 172.055 51.296L172.407 51.392V52H165.079ZM173.892 52V51.392L174.372 51.264C175.076 51.0293 175.428 50.496 175.428 49.664C175.428 48.9387 175.428 48.2133 175.428 47.488C175.45 46.7413 175.46 46.0053 175.46 45.28V33.12C175.46 32.672 175.386 32.3413 175.236 32.128C175.087 31.8933 174.799 31.7227 174.372 31.616L173.892 31.488V30.88L179.492 29.536L179.908 29.824L179.78 34.336V49.664C179.802 50.0907 179.887 50.4427 180.036 50.72C180.207 50.976 180.495 51.1573 180.9 51.264L181.348 51.392V52H173.892ZM190.797 36.16C192.141 36.16 193.293 36.4373 194.253 36.992C195.213 37.5467 195.949 38.3147 196.461 39.296C196.994 40.256 197.261 41.3653 197.261 42.624C197.261 42.9013 197.25 43.168 197.229 43.424C197.208 43.6587 197.165 43.8827 197.101 44.096H187.469C187.49 46.2933 187.896 47.872 188.685 48.832C189.496 49.792 190.669 50.272 192.205 50.272C193.272 50.272 194.136 50.1013 194.797 49.76C195.458 49.3973 196.066 48.896 196.621 48.256L197.133 48.736C196.493 49.9093 195.618 50.8267 194.509 51.488C193.421 52.128 192.12 52.448 190.605 52.448C189.09 52.448 187.757 52.128 186.605 51.488C185.453 50.848 184.546 49.9307 183.885 48.736C183.245 47.52 182.925 46.0693 182.925 44.384C182.925 42.6347 183.298 41.152 184.045 39.936C184.813 38.72 185.794 37.792 186.989 37.152C188.205 36.4907 189.474 36.16 190.797 36.16ZM190.637 37.088C190.018 37.088 189.474 37.2693 189.005 37.632C188.557 37.9733 188.194 38.592 187.917 39.488C187.661 40.3627 187.512 41.6 187.469 43.2H193.197C193.432 41.0453 193.346 39.488 192.941 38.528C192.536 37.568 191.768 37.088 190.637 37.088ZM198.891 52V51.392L199.403 51.264C200.107 51.0507 200.459 50.528 200.459 49.696V40.256C200.437 39.808 200.363 39.4667 200.235 39.232C200.107 38.976 199.829 38.8053 199.403 38.72L198.891 38.592V38.016L204.075 36.16L204.459 36.512L204.683 38.496C205.451 37.8133 206.304 37.2587 207.243 36.832C208.203 36.384 209.141 36.16 210.059 36.16C211.467 36.16 212.544 36.544 213.291 37.312C214.059 38.08 214.443 39.2533 214.443 40.832V49.728C214.443 50.56 214.827 51.0827 215.595 51.296L215.947 51.392V52H208.587V51.392L209.067 51.264C209.771 51.0293 210.123 50.5067 210.123 49.696V40.192C210.123 39.4453 209.963 38.9013 209.643 38.56C209.323 38.2187 208.789 38.048 208.043 38.048C206.997 38.048 205.909 38.5067 204.779 39.424V49.728C204.779 50.56 205.152 51.0827 205.899 51.296L206.219 51.392V52H198.891ZM225.106 52.448C223.655 52.448 222.343 52.1387 221.17 51.52C219.996 50.88 219.068 49.9627 218.386 48.768C217.724 47.552 217.394 46.08 217.394 44.352C217.394 42.624 217.767 41.152 218.514 39.936C219.26 38.72 220.252 37.792 221.49 37.152C222.748 36.4907 224.124 36.16 225.618 36.16C226.834 36.16 227.868 36.3627 228.722 36.768C229.575 37.1733 230.226 37.696 230.674 38.336C231.122 38.9547 231.346 39.616 231.346 40.32C231.346 40.9173 231.164 41.376 230.802 41.696C230.46 42.016 230.012 42.176 229.458 42.176C228.86 42.176 228.37 41.9627 227.986 41.536C227.623 41.1093 227.41 40.5653 227.346 39.904C227.324 39.4773 227.324 39.1147 227.346 38.816C227.388 38.5173 227.388 38.2293 227.346 37.952C227.26 37.5893 227.111 37.344 226.898 37.216C226.706 37.088 226.428 37.024 226.066 37.024C224.722 37.024 223.687 37.568 222.962 38.656C222.258 39.7227 221.906 41.4613 221.906 43.872C221.906 45.9413 222.3 47.5307 223.09 48.64C223.879 49.7493 225.106 50.304 226.77 50.304C227.751 50.304 228.562 50.1227 229.202 49.76C229.842 49.376 230.428 48.832 230.962 48.128L231.474 48.512C230.94 49.792 230.119 50.7733 229.01 51.456C227.922 52.1173 226.62 52.448 225.106 52.448ZM240.828 36.16C242.172 36.16 243.324 36.4373 244.284 36.992C245.244 37.5467 245.98 38.3147 246.492 39.296C247.026 40.256 247.292 41.3653 247.292 42.624C247.292 42.9013 247.282 43.168 247.26 43.424C247.239 43.6587 247.196 43.8827 247.132 44.096H237.5C237.522 46.2933 237.927 47.872 238.716 48.832C239.527 49.792 240.7 50.272 242.236 50.272C243.303 50.272 244.167 50.1013 244.828 49.76C245.49 49.3973 246.098 48.896 246.652 48.256L247.164 48.736C246.524 49.9093 245.65 50.8267 244.54 51.488C243.452 52.128 242.151 52.448 240.636 52.448C239.122 52.448 237.788 52.128 236.636 51.488C235.484 50.848 234.578 49.9307 233.916 48.736C233.276 47.52 232.956 46.0693 232.956 44.384C232.956 42.6347 233.33 41.152 234.076 39.936C234.844 38.72 235.826 37.792 237.02 37.152C238.236 36.4907 239.506 36.16 240.828 36.16ZM240.668 37.088C240.05 37.088 239.506 37.2693 239.036 37.632C238.588 37.9733 238.226 38.592 237.948 39.488C237.692 40.3627 237.543 41.6 237.5 43.2H243.228C243.463 41.0453 243.378 39.488 242.972 38.528C242.567 37.568 241.799 37.088 240.668 37.088ZM250.597 57.088L250.309 56.416C251.632 55.584 252.453 54.336 252.773 52.672L251.781 52.192C251.163 51.8933 250.693 51.52 250.373 51.072C250.053 50.6027 249.893 50.1227 249.893 49.632C249.893 48.928 250.128 48.3307 250.597 47.84C251.088 47.3493 251.717 47.104 252.485 47.104C253.275 47.104 253.915 47.3813 254.405 47.936C254.896 48.4907 255.141 49.2907 255.141 50.336C255.141 51.488 254.907 52.5227 254.437 53.44C253.989 54.3573 253.413 55.1253 252.709 55.744C252.027 56.3627 251.323 56.8107 250.597 57.088ZM267.894 59.712C267.041 59.712 266.369 59.5093 265.878 59.104C265.388 58.6987 265.142 58.1653 265.142 57.504C265.142 56.9067 265.345 56.4267 265.75 56.064C266.177 55.7227 266.646 55.552 267.158 55.552C267.692 55.552 268.129 55.648 268.47 55.84C268.812 56.032 269.11 56.3093 269.366 56.672L269.558 56.928C270.049 57.5253 270.508 57.5147 270.934 56.896C271.212 56.5333 271.478 56.0853 271.734 55.552C272.012 55.0187 272.31 54.3147 272.63 53.44L266.55 38.912C266.401 38.5067 266.23 38.1973 266.038 37.984C265.846 37.7493 265.558 37.5573 265.174 37.408L264.63 37.216V36.64H272.534V37.216L271.862 37.408C271.393 37.5573 271.137 37.792 271.094 38.112C271.073 38.4107 271.148 38.8053 271.318 39.296L274.582 47.808L277.718 39.232C277.889 38.7627 277.953 38.368 277.91 38.048C277.868 37.728 277.601 37.5147 277.11 37.408L276.406 37.216V36.64H281.174V37.216L280.47 37.44C280.001 37.568 279.66 37.76 279.446 38.016C279.254 38.2507 279.073 38.6027 278.902 39.072L273.782 52.832C272.929 55.1787 272.054 56.9067 271.158 58.016C270.284 59.1467 269.196 59.712 267.894 59.712ZM289.422 52.448C287.843 52.448 286.457 52.1173 285.262 51.456C284.089 50.7947 283.171 49.856 282.51 48.64C281.87 47.424 281.55 45.9733 281.55 44.288C281.55 42.6027 281.891 41.152 282.574 39.936C283.278 38.72 284.217 37.792 285.39 37.152C286.585 36.4907 287.929 36.16 289.422 36.16C290.915 36.16 292.249 36.4907 293.422 37.152C294.617 37.792 295.555 38.72 296.238 39.936C296.942 41.1307 297.294 42.5813 297.294 44.288C297.294 45.9733 296.963 47.4347 296.302 48.672C295.662 49.888 294.755 50.8267 293.582 51.488C292.409 52.128 291.022 52.448 289.422 52.448ZM289.422 51.552C290.19 51.552 290.809 51.3493 291.278 50.944C291.769 50.5173 292.121 49.7813 292.334 48.736C292.547 47.6907 292.654 46.2293 292.654 44.352C292.654 42.4533 292.547 40.9813 292.334 39.936C292.121 38.8693 291.769 38.1333 291.278 37.728C290.809 37.3013 290.19 37.088 289.422 37.088C288.654 37.088 288.035 37.3013 287.566 37.728C287.097 38.1333 286.745 38.8693 286.51 39.936C286.297 40.9813 286.19 42.4533 286.19 44.352C286.19 46.2293 286.297 47.6907 286.51 48.736C286.745 49.7813 287.097 50.5173 287.566 50.944C288.035 51.3493 288.654 51.552 289.422 51.552ZM304.338 52.448C303.506 52.448 302.748 52.2987 302.066 52C301.383 51.68 300.839 51.168 300.434 50.464C300.05 49.7387 299.868 48.7893 299.89 47.616L299.986 39.584C299.986 39.1147 299.911 38.7733 299.762 38.56C299.612 38.3467 299.346 38.1973 298.962 38.112L298.578 37.984V37.408L304.05 36.352L304.402 36.704L304.242 41.216V48.48C304.242 49.2053 304.434 49.7387 304.818 50.08C305.223 50.4 305.724 50.56 306.322 50.56C306.94 50.56 307.495 50.4747 307.986 50.304C308.498 50.112 309.02 49.8347 309.554 49.472L309.65 39.616C309.65 39.1253 309.575 38.784 309.426 38.592C309.298 38.4 309.042 38.2507 308.658 38.144L308.306 38.048V37.472L313.65 36.352L314.002 36.704L313.906 41.216V49.6C313.906 50.048 313.959 50.4107 314.066 50.688C314.194 50.944 314.46 51.136 314.866 51.264L315.282 51.392V52L309.874 52.32L309.586 50.304C308.86 50.9227 308.071 51.4347 307.218 51.84C306.364 52.2453 305.404 52.448 304.338 52.448ZM316.578 52V51.392L317.058 51.232C317.485 51.1253 317.773 50.944 317.922 50.688C318.093 50.432 318.178 50.0907 318.178 49.664V40.288C318.157 39.8187 318.072 39.4667 317.922 39.232C317.773 38.976 317.485 38.8053 317.058 38.72L316.578 38.592V38.016L321.794 36.16L322.178 36.512L322.466 39.328V39.552C322.786 38.9547 323.192 38.4 323.682 37.888C324.173 37.376 324.706 36.96 325.282 36.64C325.858 36.32 326.434 36.16 327.01 36.16C327.821 36.16 328.429 36.3733 328.834 36.8C329.24 37.2267 329.442 37.7707 329.442 38.432C329.442 39.1573 329.24 39.712 328.834 40.096C328.429 40.4587 327.938 40.64 327.362 40.64C326.509 40.64 325.773 40.256 325.154 39.488L325.09 39.424C324.877 39.168 324.632 39.0293 324.354 39.008C324.098 38.9653 323.842 39.0933 323.586 39.392C323.373 39.6053 323.17 39.8613 322.978 40.16C322.808 40.4373 322.648 40.768 322.498 41.152V49.536C322.498 49.9413 322.584 50.2827 322.754 50.56C322.925 50.816 323.213 50.9973 323.618 51.104L324.578 51.392V52H316.578ZM48.208 96.448C47.184 96.448 46.256 96.3307 45.424 96.096C44.6133 95.8827 43.8347 95.5733 43.088 95.168V91.392H43.952L44.912 93.216C45.3173 94.0053 45.776 94.592 46.288 94.976C46.8213 95.36 47.4933 95.552 48.304 95.552C49.3067 95.552 50.1067 95.3387 50.704 94.912C51.3013 94.464 51.6 93.8667 51.6 93.12C51.6 92.4373 51.376 91.8827 50.928 91.456C50.48 91.0293 49.68 90.6347 48.528 90.272L47.12 89.824C45.8613 89.44 44.8587 88.864 44.112 88.096C43.3867 87.3067 43.024 86.3253 43.024 85.152C43.024 84.2347 43.2693 83.4027 43.76 82.656C44.2507 81.888 44.9653 81.28 45.904 80.832C46.8427 80.384 47.984 80.16 49.328 80.16C50.2027 80.16 51.0027 80.2667 51.728 80.48C52.4747 80.672 53.2 80.9493 53.904 81.312L53.712 84.736H52.88L51.888 82.912C51.5467 82.2293 51.1947 81.76 50.832 81.504C50.4907 81.2267 49.9573 81.088 49.232 81.088C48.464 81.088 47.7813 81.2907 47.184 81.696C46.608 82.08 46.32 82.624 46.32 83.328C46.32 83.9893 46.5653 84.5333 47.056 84.96C47.5467 85.3653 48.336 85.7493 49.424 86.112L50.8 86.528C52.3573 87.0187 53.4667 87.6693 54.128 88.48C54.7893 89.2907 55.12 90.2613 55.12 91.392C55.12 92.9067 54.512 94.1333 53.296 95.072C52.1013 95.9893 50.4053 96.448 48.208 96.448ZM61.062 96.448C59.846 96.448 58.8113 96.1067 57.958 95.424C57.126 94.72 56.71 93.7173 56.71 92.416C56.71 91.392 57.2007 90.4533 58.182 89.6C59.1847 88.7253 60.7527 88.0853 62.886 87.68C63.2487 87.5947 63.6647 87.52 64.134 87.456C64.6247 87.3707 65.1047 87.2853 65.574 87.2V84.928C65.574 83.4773 65.3927 82.4747 65.03 81.92C64.6673 81.3653 64.0913 81.088 63.302 81.088H63.206C62.7153 81.088 62.3207 81.248 62.022 81.568C61.7447 81.8667 61.5633 82.368 61.478 83.072L61.382 83.488C61.318 84.3413 61.094 84.9707 60.71 85.376C60.326 85.76 59.846 85.952 59.27 85.952C58.7367 85.952 58.2887 85.792 57.926 85.472C57.5847 85.1307 57.414 84.6933 57.414 84.16C57.414 83.2853 57.7127 82.5493 58.31 81.952C58.9073 81.3547 59.6967 80.9067 60.678 80.608C61.6807 80.3093 62.758 80.16 63.91 80.16C65.8087 80.16 67.2593 80.6187 68.262 81.536C69.2647 82.4533 69.766 83.9467 69.766 86.016V93.152C69.766 94.0693 70.2033 94.528 71.078 94.528H71.814L72.134 94.88C71.75 95.3707 71.3233 95.744 70.854 96C70.3847 96.2773 69.7447 96.416 68.934 96.416C68.0167 96.416 67.2807 96.2027 66.726 95.776C66.1927 95.328 65.8407 94.7413 65.67 94.016C64.9873 94.7413 64.3153 95.328 63.654 95.776C62.9927 96.224 62.1287 96.448 61.062 96.448ZM62.918 94.4C63.3447 94.4 63.75 94.304 64.134 94.112C64.518 93.92 64.998 93.6 65.574 93.152V88.032C65.0193 88.1173 64.454 88.224 63.878 88.352C62.9607 88.5653 62.214 88.96 61.638 89.536C61.0833 90.112 60.806 90.8907 60.806 91.872C60.806 92.7253 60.998 93.3653 61.382 93.792C61.7873 94.1973 62.2993 94.4 62.918 94.4ZM72.8915 96V95.392L73.3715 95.264C74.2248 95.0293 74.6622 94.5067 74.6835 93.696C74.6835 92.9493 74.6835 92.2133 74.6835 91.488C74.7048 90.7413 74.7155 90.0053 74.7155 89.28V81.632H72.8915V80.928L73.5955 80.8C74.0222 80.736 74.3315 80.5867 74.5235 80.352C74.7155 80.096 74.8542 79.744 74.9395 79.296C75.1742 78.4427 75.4835 77.7067 75.8675 77.088C76.2728 76.448 76.7528 75.8613 77.3075 75.328C78.0968 74.56 78.9395 74.0267 79.8355 73.728C80.7315 73.4293 81.6062 73.28 82.4595 73.28C83.2915 73.28 84.0488 73.4507 84.7315 73.792C85.4355 74.112 85.7875 74.6667 85.7875 75.456C85.7875 76.0107 85.6168 76.4587 85.2755 76.8C84.9555 77.12 84.4862 77.28 83.8675 77.28C82.8862 77.28 82.0222 76.704 81.2755 75.552L80.8915 75.104C80.6355 74.784 80.3795 74.656 80.1235 74.72C79.8675 74.784 79.6862 74.9973 79.5795 75.36C79.4088 76.0427 79.2702 76.8427 79.1635 77.76C79.0782 78.6773 79.0248 79.6373 79.0035 80.64H82.6835V81.632H79.0035V89.28C79.0035 90.0053 79.0035 90.7307 79.0035 91.456C79.0248 92.16 79.0355 92.8747 79.0355 93.6C79.0355 94.4533 79.4622 94.976 80.3155 95.168L81.1475 95.392V96H72.8915ZM91.3595 80.16C92.7035 80.16 93.8555 80.4373 94.8155 80.992C95.7755 81.5467 96.5115 82.3147 97.0235 83.296C97.5568 84.256 97.8235 85.3653 97.8235 86.624C97.8235 86.9013 97.8128 87.168 97.7915 87.424C97.7702 87.6587 97.7275 87.8827 97.6635 88.096H88.0315C88.0528 90.2933 88.4582 91.872 89.2475 92.832C90.0582 93.792 91.2315 94.272 92.7675 94.272C93.8342 94.272 94.6982 94.1013 95.3595 93.76C96.0208 93.3973 96.6288 92.896 97.1835 92.256L97.6955 92.736C97.0555 93.9093 96.1808 94.8267 95.0715 95.488C93.9835 96.128 92.6822 96.448 91.1675 96.448C89.6528 96.448 88.3195 96.128 87.1675 95.488C86.0155 94.848 85.1088 93.9307 84.4475 92.736C83.8075 91.52 83.4875 90.0693 83.4875 88.384C83.4875 86.6347 83.8608 85.152 84.6075 83.936C85.3755 82.72 86.3568 81.792 87.5515 81.152C88.7675 80.4907 90.0368 80.16 91.3595 80.16ZM91.1995 81.088C90.5808 81.088 90.0368 81.2693 89.5675 81.632C89.1195 81.9733 88.7568 82.592 88.4795 83.488C88.2235 84.3627 88.0742 85.6 88.0315 87.2H93.7595C93.9942 85.0453 93.9088 83.488 93.5035 82.528C93.0982 81.568 92.3302 81.088 91.1995 81.088ZM105.469 96.448C104.147 96.448 103.101 96.128 102.333 95.488C101.587 94.8267 101.213 93.76 101.213 92.288C101.213 91.776 101.213 91.296 101.213 90.848C101.235 90.3787 101.245 89.8347 101.245 89.216V81.632H98.9733V80.928L99.8372 80.8C100.456 80.6933 100.979 80.5013 101.405 80.224C101.853 79.9467 102.259 79.5627 102.621 79.072L104.701 76.192H105.661L105.565 80.64H109.213V81.632H105.533V92.544C105.533 93.312 105.693 93.888 106.013 94.272C106.355 94.656 106.771 94.848 107.261 94.848C107.688 94.848 108.072 94.752 108.413 94.56C108.755 94.3467 109.096 94.0693 109.437 93.728L109.853 94.208C109.448 94.912 108.883 95.4667 108.157 95.872C107.432 96.256 106.536 96.448 105.469 96.448ZM113.801 103.712C112.947 103.712 112.275 103.509 111.785 103.104C111.294 102.699 111.049 102.165 111.049 101.504C111.049 100.907 111.251 100.427 111.657 100.064C112.083 99.7227 112.553 99.552 113.065 99.552C113.598 99.552 114.035 99.648 114.377 99.84C114.718 100.032 115.017 100.309 115.273 100.672L115.465 100.928C115.955 101.525 116.414 101.515 116.841 100.896C117.118 100.533 117.385 100.085 117.641 99.552C117.918 99.0187 118.217 98.3147 118.536 97.44L112.457 82.912C112.307 82.5067 112.137 82.1973 111.945 81.984C111.753 81.7493 111.465 81.5573 111.081 81.408L110.537 81.216V80.64H118.441V81.216L117.769 81.408C117.299 81.5573 117.043 81.792 117.001 82.112C116.979 82.4107 117.054 82.8053 117.225 83.296L120.489 91.808L123.625 83.232C123.795 82.7627 123.859 82.368 123.817 82.048C123.774 81.728 123.507 81.5147 123.017 81.408L122.313 81.216V80.64H127.081V81.216L126.377 81.44C125.907 81.568 125.566 81.76 125.353 82.016C125.161 82.2507 124.979 82.6027 124.809 83.072L119.689 96.832C118.835 99.1787 117.961 100.907 117.065 102.016C116.19 103.147 115.102 103.712 113.801 103.712ZM135.172 96V95.36L135.876 95.168C136.217 95.0613 136.441 94.912 136.548 94.72C136.655 94.5067 136.719 94.2293 136.74 93.888V87.552C136.74 86.848 136.74 86.2507 136.74 85.76C136.74 85.2693 136.729 84.6933 136.708 84.032C136.708 83.6693 136.655 83.392 136.548 83.2C136.441 82.9867 136.207 82.8373 135.844 82.752L135.172 82.592V82.016L140.356 80.16L140.74 80.512L140.964 82.656C141.711 81.9733 142.543 81.3867 143.46 80.896C144.377 80.4053 145.316 80.16 146.276 80.16C147.343 80.16 148.175 80.3733 148.772 80.8C149.369 81.2267 149.828 81.8773 150.148 82.752C150.959 81.9413 151.855 81.312 152.836 80.864C153.817 80.3947 154.788 80.16 155.748 80.16C157.199 80.16 158.287 80.5227 159.012 81.248C159.737 81.9733 160.1 83.1147 160.1 84.672V93.92C160.1 94.6027 160.399 95.0293 160.996 95.2L161.604 95.36V96H154.404V95.36L154.98 95.2C155.556 95.008 155.844 94.5707 155.844 93.888V84.512C155.844 83.5947 155.673 82.976 155.332 82.656C155.012 82.3147 154.479 82.144 153.732 82.144C153.156 82.144 152.612 82.2613 152.1 82.496C151.588 82.7307 151.023 83.0933 150.404 83.584C150.532 84.224 150.596 84.96 150.596 85.792V93.92C150.617 94.2827 150.681 94.5707 150.788 94.784C150.916 94.976 151.151 95.1147 151.492 95.2L152.036 95.36V96H144.804V95.36L145.476 95.168C145.817 95.0613 146.041 94.912 146.148 94.72C146.276 94.5067 146.34 94.2293 146.34 93.888V84.544C146.34 83.6693 146.18 83.0507 145.86 82.688C145.54 82.3253 144.996 82.144 144.228 82.144C143.247 82.144 142.191 82.6133 141.06 83.552V93.92C141.06 94.624 141.359 95.0507 141.956 95.2L142.5 95.36V96H135.172ZM167.406 96.448C166.19 96.448 165.155 96.1067 164.302 95.424C163.47 94.72 163.054 93.7173 163.054 92.416C163.054 91.392 163.544 90.4533 164.526 89.6C165.528 88.7253 167.096 88.0853 169.23 87.68C169.592 87.5947 170.008 87.52 170.478 87.456C170.968 87.3707 171.448 87.2853 171.918 87.2V84.928C171.918 83.4773 171.736 82.4747 171.374 81.92C171.011 81.3653 170.435 81.088 169.646 81.088H169.55C169.059 81.088 168.664 81.248 168.366 81.568C168.088 81.8667 167.907 82.368 167.822 83.072L167.726 83.488C167.662 84.3413 167.438 84.9707 167.054 85.376C166.67 85.76 166.19 85.952 165.614 85.952C165.08 85.952 164.632 85.792 164.27 85.472C163.928 85.1307 163.758 84.6933 163.758 84.16C163.758 83.2853 164.056 82.5493 164.654 81.952C165.251 81.3547 166.04 80.9067 167.022 80.608C168.024 80.3093 169.102 80.16 170.254 80.16C172.152 80.16 173.603 80.6187 174.606 81.536C175.608 82.4533 176.11 83.9467 176.11 86.016V93.152C176.11 94.0693 176.547 94.528 177.422 94.528H178.158L178.478 94.88C178.094 95.3707 177.667 95.744 177.198 96C176.728 96.2773 176.088 96.416 175.278 96.416C174.36 96.416 173.624 96.2027 173.07 95.776C172.536 95.328 172.184 94.7413 172.014 94.016C171.331 94.7413 170.659 95.328 169.998 95.776C169.336 96.224 168.472 96.448 167.406 96.448ZM169.262 94.4C169.688 94.4 170.094 94.304 170.478 94.112C170.862 93.92 171.342 93.6 171.918 93.152V88.032C171.363 88.1173 170.798 88.224 170.222 88.352C169.304 88.5653 168.558 88.96 167.982 89.536C167.427 90.112 167.15 90.8907 167.15 91.872C167.15 92.7253 167.342 93.3653 167.726 93.792C168.131 94.1973 168.643 94.4 169.262 94.4ZM185.219 96.448C183.897 96.448 182.851 96.128 182.083 95.488C181.337 94.8267 180.963 93.76 180.963 92.288C180.963 91.776 180.963 91.296 180.963 90.848C180.985 90.3787 180.995 89.8347 180.995 89.216V81.632H178.723V80.928L179.587 80.8C180.206 80.6933 180.729 80.5013 181.155 80.224C181.603 79.9467 182.009 79.5627 182.371 79.072L184.451 76.192H185.411L185.315 80.64H188.963V81.632H185.283V92.544C185.283 93.312 185.443 93.888 185.763 94.272C186.105 94.656 186.521 94.848 187.011 94.848C187.438 94.848 187.822 94.752 188.163 94.56C188.505 94.3467 188.846 94.0693 189.187 93.728L189.603 94.208C189.198 94.912 188.633 95.4667 187.907 95.872C187.182 96.256 186.286 96.448 185.219 96.448ZM196.688 96.448C195.365 96.448 194.32 96.128 193.552 95.488C192.805 94.8267 192.432 93.76 192.432 92.288C192.432 91.776 192.432 91.296 192.432 90.848C192.453 90.3787 192.464 89.8347 192.464 89.216V81.632H190.192V80.928L191.056 80.8C191.675 80.6933 192.197 80.5013 192.624 80.224C193.072 79.9467 193.477 79.5627 193.84 79.072L195.92 76.192H196.88L196.784 80.64H200.432V81.632H196.752V92.544C196.752 93.312 196.912 93.888 197.232 94.272C197.573 94.656 197.989 94.848 198.48 94.848C198.907 94.848 199.291 94.752 199.632 94.56C199.973 94.3467 200.315 94.0693 200.656 93.728L201.072 94.208C200.667 94.912 200.101 95.4667 199.376 95.872C198.651 96.256 197.755 96.448 196.688 96.448ZM210.078 80.16C211.422 80.16 212.574 80.4373 213.534 80.992C214.494 81.5467 215.23 82.3147 215.742 83.296C216.276 84.256 216.542 85.3653 216.542 86.624C216.542 86.9013 216.532 87.168 216.51 87.424C216.489 87.6587 216.446 87.8827 216.382 88.096H206.75C206.772 90.2933 207.177 91.872 207.966 92.832C208.777 93.792 209.95 94.272 211.486 94.272C212.553 94.272 213.417 94.1013 214.078 93.76C214.74 93.3973 215.348 92.896 215.902 92.256L216.414 92.736C215.774 93.9093 214.9 94.8267 213.79 95.488C212.702 96.128 211.401 96.448 209.886 96.448C208.372 96.448 207.038 96.128 205.886 95.488C204.734 94.848 203.828 93.9307 203.166 92.736C202.526 91.52 202.206 90.0693 202.206 88.384C202.206 86.6347 202.58 85.152 203.326 83.936C204.094 82.72 205.076 81.792 206.27 81.152C207.486 80.4907 208.756 80.16 210.078 80.16ZM209.918 81.088C209.3 81.088 208.756 81.2693 208.286 81.632C207.838 81.9733 207.476 82.592 207.198 83.488C206.942 84.3627 206.793 85.6 206.75 87.2H212.478C212.713 85.0453 212.628 83.488 212.222 82.528C211.817 81.568 211.049 81.088 209.918 81.088ZM218.172 96V95.392L218.652 95.232C219.079 95.1253 219.367 94.944 219.516 94.688C219.687 94.432 219.772 94.0907 219.772 93.664V84.288C219.751 83.8187 219.665 83.4667 219.516 83.232C219.367 82.976 219.079 82.8053 218.652 82.72L218.172 82.592V82.016L223.388 80.16L223.772 80.512L224.06 83.328V83.552C224.38 82.9547 224.785 82.4 225.276 81.888C225.767 81.376 226.3 80.96 226.876 80.64C227.452 80.32 228.028 80.16 228.604 80.16C229.415 80.16 230.023 80.3733 230.428 80.8C230.833 81.2267 231.036 81.7707 231.036 82.432C231.036 83.1573 230.833 83.712 230.428 84.096C230.023 84.4587 229.532 84.64 228.956 84.64C228.103 84.64 227.367 84.256 226.748 83.488L226.684 83.424C226.471 83.168 226.225 83.0293 225.948 83.008C225.692 82.9653 225.436 83.0933 225.18 83.392C224.967 83.6053 224.764 83.8613 224.572 84.16C224.401 84.4373 224.241 84.768 224.092 85.152V93.536C224.092 93.9413 224.177 94.2827 224.348 94.56C224.519 94.816 224.807 94.9973 225.212 95.104L226.172 95.392V96H218.172ZM237.302 96.448C236.278 96.448 235.35 96.3307 234.518 96.096C233.707 95.8827 232.928 95.5733 232.182 95.168V91.392H233.046L234.006 93.216C234.411 94.0053 234.87 94.592 235.382 94.976C235.915 95.36 236.587 95.552 237.398 95.552C238.4 95.552 239.2 95.3387 239.798 94.912C240.395 94.464 240.694 93.8667 240.694 93.12C240.694 92.4373 240.47 91.8827 240.022 91.456C239.574 91.0293 238.774 90.6347 237.622 90.272L236.214 89.824C234.955 89.44 233.952 88.864 233.206 88.096C232.48 87.3067 232.118 86.3253 232.118 85.152C232.118 84.2347 232.363 83.4027 232.854 82.656C233.344 81.888 234.059 81.28 234.998 80.832C235.936 80.384 237.078 80.16 238.422 80.16C239.296 80.16 240.096 80.2667 240.822 80.48C241.568 80.672 242.294 80.9493 242.998 81.312L242.806 84.736H241.974L240.982 82.912C240.64 82.2293 240.288 81.76 239.926 81.504C239.584 81.2267 239.051 81.088 238.326 81.088C237.558 81.088 236.875 81.2907 236.278 81.696C235.702 82.08 235.414 82.624 235.414 83.328C235.414 83.9893 235.659 84.5333 236.15 84.96C236.64 85.3653 237.43 85.7493 238.518 86.112L239.894 86.528C241.451 87.0187 242.56 87.6693 243.222 88.48C243.883 89.2907 244.214 90.2613 244.214 91.392C244.214 92.9067 243.606 94.1333 242.39 95.072C241.195 95.9893 239.499 96.448 237.302 96.448ZM249.331 96.448C248.585 96.448 247.945 96.192 247.411 95.68C246.899 95.168 246.643 94.5493 246.643 93.824C246.643 93.0773 246.899 92.4373 247.411 91.904C247.945 91.3707 248.585 91.104 249.331 91.104C250.078 91.104 250.707 91.3707 251.219 91.904C251.753 92.4373 252.019 93.0773 252.019 93.824C252.019 94.5493 251.753 95.168 251.219 95.68C250.707 96.192 250.078 96.448 249.331 96.448Z" fill="white"/>
</svg>
